<svg width="223" height="132" viewBox="0 0 223 132" fill="none" xmlns="http://www.w3.org/2000/svg">
<g opacity="0.25">
<path d="M198.511 -11.7213L178.462 23.5756C191.071 33.0967 201.557 45.2247 209.192 59.1807C218.261 75.7593 223.011 94.3779 223 113.302V132H1.89175e-05V113.302C-0.0109431 94.3777 4.74235 75.7595 13.8116 59.1807C21.4459 45.2252 31.9297 33.0965 44.5381 23.5756L24.4893 -11.7213L40.625 -21L60.2892 13.619C76.072 5.39538 93.6323 1.08322 111.5 1.10807H111.51C129.957 1.10954 147.374 5.62576 162.711 13.619L182.378 -21L198.511 -11.7213ZM109.839 19.8196C92.8245 20.0987 76.2042 25.0972 61.817 34.2821L61.8034 34.289C48.5574 42.7159 37.6474 54.3815 30.0902 68.1958C22.533 82.0104 18.5758 97.5261 18.5856 113.295V113.302H204.418V113.295C204.428 97.5261 200.47 82.0104 192.913 68.1958C185.356 54.3814 174.446 42.7159 161.2 34.289L161.186 34.2821C146.826 25.1162 129.793 19.8059 111.5 19.8059H111.486L109.839 19.8196Z" fill="url(#paint0_linear_2009_814)"/>
<path d="M74.3731 66.5523V85.2913H55.75V66.5523H74.3731ZM167.287 66.5523V85.2913H148.668V66.5523H167.287Z" fill="url(#paint1_linear_2009_814)"/>
</g>
<defs>
<linearGradient id="paint0_linear_2009_814" x1="111.5" y1="-21" x2="111.5" y2="132" gradientUnits="userSpaceOnUse">
<stop stop-color="#1C946D"/>
<stop offset="1" stop-color="#C7FFF2"/>
</linearGradient>
<linearGradient id="paint1_linear_2009_814" x1="111.5" y1="-21" x2="111.5" y2="132" gradientUnits="userSpaceOnUse">
<stop stop-color="#1C946D"/>
<stop offset="1" stop-color="#C7FFF2"/>
</linearGradient>
</defs>
</svg>
