<svg width="270" height="184" viewBox="0 0 270 184" fill="none" xmlns="http://www.w3.org/2000/svg">
<g opacity="0.25">
<path d="M240.349 11.1588L216.075 53.6073C231.342 65.0574 244.038 79.6427 253.282 96.4264C264.262 116.364 270.013 138.755 270 161.514V184H2.29046e-05V161.514C-0.0132495 138.755 5.74186 116.364 16.7226 96.4264C25.9659 79.6434 38.6592 65.0572 53.925 53.6073L29.6507 11.1588L49.1872 0L72.9959 41.6333C92.1051 31.7435 113.366 26.5576 135 26.5875H135.012C157.347 26.5893 178.435 32.0205 197.004 41.6333L220.817 0L240.349 11.1588ZM132.99 49.0903C112.388 49.4259 92.2651 55.4372 74.8457 66.4831L74.8293 66.4913C58.7915 76.6256 45.582 90.6548 36.4321 107.268C27.2821 123.882 22.4909 142.541 22.5028 161.505V161.514H247.501V161.505C247.513 142.541 242.722 123.882 233.572 107.268C224.422 90.6547 211.213 76.6257 195.175 66.4913L195.158 66.4831C177.771 55.46 157.148 49.0738 135 49.0738H134.984L132.99 49.0903Z" fill="url(#paint0_linear_2009_569)"/>
<path d="M90.0481 105.292V127.827H67.5V105.292H90.0481ZM202.545 105.292V127.827H180.001V105.292H202.545Z" fill="url(#paint1_linear_2009_569)"/>
</g>
<defs>
<linearGradient id="paint0_linear_2009_569" x1="135" y1="0" x2="135" y2="184" gradientUnits="userSpaceOnUse">
<stop stop-color="#1C946D"/>
<stop offset="1" stop-color="#C7FFF2"/>
</linearGradient>
<linearGradient id="paint1_linear_2009_569" x1="135" y1="0" x2="135" y2="184" gradientUnits="userSpaceOnUse">
<stop stop-color="#1C946D"/>
<stop offset="1" stop-color="#C7FFF2"/>
</linearGradient>
</defs>
</svg>
