<svg width="173" height="168" viewBox="0 0 173 168" fill="none" xmlns="http://www.w3.org/2000/svg">
<path opacity="0.25" d="M74.0043 -11L148.273 -8.14281C152.411 -7.9758 155.872 -5.15773 156.604 -1.33907L172.168 79.915C173.708 87.9495 173.104 96.2159 170.411 103.98C167.718 111.745 163.018 118.768 156.73 124.425L108.292 168L46.7013 142.911C38.7055 139.653 31.6928 134.599 26.2857 128.195C20.8787 121.791 17.2444 114.237 15.7056 106.202L0.138904 24.9363C-0.590285 21.1296 1.60694 17.3485 5.42708 15.8568L74.0043 -11ZM77.1976 5.67087L18.7669 28.5442L33.0833 103.283C35.168 114.166 42.927 123.344 53.7606 127.757L104.543 148.429L144.484 112.502C148.678 108.727 151.812 104.043 153.609 98.8638C155.406 93.6846 155.81 88.1706 154.786 82.8108L140.479 8.12003L77.1976 5.67087ZM83.3534 37.8073C87.1782 37.1679 91.1213 37.7263 94.5723 39.3962C98.0233 41.066 100.79 43.7542 102.444 47.0445C104.097 50.3349 104.546 54.044 103.721 57.5977C102.895 61.1514 100.841 64.3515 97.8766 66.7027L104.516 101.431L87.1253 104.353L80.4734 69.6266C76.8252 68.3876 73.715 66.0578 71.6241 62.9976C69.5332 59.9374 68.5781 56.3173 68.9065 52.6974C69.2349 49.0775 70.8285 45.6595 73.4409 42.9722C76.0532 40.2849 79.5387 38.478 83.358 37.8312L83.3534 37.8073Z" fill="url(#paint0_linear_2009_821)"/>
<defs>
<linearGradient id="paint0_linear_2009_821" x1="86.5" y1="-11" x2="86.5" y2="168" gradientUnits="userSpaceOnUse">
<stop stop-color="#1C946D"/>
<stop offset="1" stop-color="#C7FFF2"/>
</linearGradient>
</defs>
</svg>
