<svg width="245" height="230" viewBox="0 0 245 230" fill="none" xmlns="http://www.w3.org/2000/svg">
<path opacity="0.25" d="M104.804 0L209.982 4.05434C215.842 4.29132 220.744 8.29014 221.78 13.7088L243.822 129.008C246.002 140.409 245.147 152.139 241.333 163.157C237.519 174.174 230.864 184.139 221.959 192.167L153.362 254L66.1377 218.399C54.8141 213.776 44.8829 206.604 37.2254 197.517C29.568 188.43 24.4213 177.711 22.242 166.309L0.196713 50.9935C-0.835953 45.5917 2.27572 40.2264 7.68575 38.1097L104.804 0ZM109.326 23.6559L26.5774 56.1131L46.852 162.167C49.8043 177.61 60.7926 190.634 76.1349 196.895L148.053 226.229L204.616 175.249C210.556 169.893 214.994 163.245 217.539 155.896C220.084 148.547 220.656 140.723 219.206 133.117L198.944 27.1312L109.326 23.6559ZM118.044 69.2573C123.46 68.35 129.045 69.1424 133.932 71.5119C138.819 73.8814 142.737 77.6959 145.079 82.3649C147.421 87.0339 148.057 92.297 146.888 97.3397C145.718 102.382 142.81 106.923 138.611 110.26L148.014 159.539L123.386 163.685L113.965 114.409C108.799 112.651 104.394 109.345 101.433 105.002C98.4719 100.66 97.1192 95.5229 97.5843 90.3862C98.0494 85.2496 100.306 80.3995 104.006 76.5862C107.705 72.773 112.641 70.2091 118.05 69.2912L118.044 69.2573Z" fill="url(#paint0_linear_2009_575)"/>
<defs>
<linearGradient id="paint0_linear_2009_575" x1="122.5" y1="0" x2="122.5" y2="254" gradientUnits="userSpaceOnUse">
<stop stop-color="#1C946D"/>
<stop offset="1" stop-color="#C7FFF2"/>
</linearGradient>
</defs>
</svg>
