<svg width="193" height="237" viewBox="0 0 193 237" fill="none" xmlns="http://www.w3.org/2000/svg">
<g opacity="0.6">
<path d="M79.3225 20.0407L42.855 26.7504C33.1818 28.5302 24.6118 34.0798 19.0303 42.1783C13.4488 50.2769 11.313 60.2609 13.0928 69.9341C14.8726 79.6074 20.4222 88.1774 28.5207 93.7589C36.6192 99.3404 46.6033 101.476 56.2765 99.6964L92.744 92.9866L79.3225 20.0407Z" stroke="url(#paint0_linear_2009_561)" stroke-width="24"/>
<path d="M172.4 116.033C174.18 125.706 172.044 135.69 166.462 143.789C160.881 151.887 152.311 157.437 142.638 159.217C132.964 160.996 122.98 158.861 114.882 153.279C106.783 147.698 101.234 139.128 99.4539 129.454C97.6741 119.781 99.8098 109.797 105.391 101.698C110.973 93.6 119.543 88.0504 129.216 86.2706C138.889 84.4908 148.873 86.6266 156.972 92.2081C165.07 97.7895 170.62 106.36 172.4 116.033ZM69.6981 172.642L106.166 165.933L112.875 202.4C114.2 209.613 113.357 217.056 110.451 223.789C107.546 230.522 102.71 236.243 96.5533 240.227C90.3971 244.212 83.1977 246.282 75.8653 246.175C68.5329 246.068 61.3968 243.789 55.3594 239.627C49.3219 235.464 44.6543 229.605 41.9465 222.79C39.2388 215.975 38.6126 208.511 40.1472 201.34C41.6817 194.169 45.308 187.614 50.5676 182.504C55.8273 177.394 62.486 173.969 69.6981 172.642Z" stroke="url(#paint1_linear_2009_561)" stroke-width="24"/>
</g>
<path d="M92.7439 92.987L56.2764 99.6967C46.6046 101.476 38.0359 107.025 32.4552 115.122C26.8746 123.22 24.7391 133.202 26.5187 142.874C28.2982 152.546 33.8469 161.114 41.9442 166.695C50.0415 172.276 60.0241 174.411 69.6959 172.632L106.163 165.922L92.7439 92.987ZM92.7439 92.987L129.211 86.2767C138.885 84.4969 147.455 78.9473 153.036 70.8488C158.618 62.7503 160.753 52.7662 158.974 43.093C157.194 33.4197 151.644 24.8497 143.546 19.2682C135.447 13.6867 125.463 11.551 115.79 13.3308L79.3223 20.0405L92.7439 92.987Z" stroke="url(#paint2_linear_2009_561)" stroke-width="24"/>
<defs>
<linearGradient id="paint0_linear_2009_561" x1="79.3253" y1="20.0402" x2="119.586" y2="238.856" gradientUnits="userSpaceOnUse">
<stop stop-color="#1C946D"/>
<stop offset="1" stop-color="#C7FFF2"/>
</linearGradient>
<linearGradient id="paint1_linear_2009_561" x1="79.3253" y1="20.0402" x2="119.586" y2="238.856" gradientUnits="userSpaceOnUse">
<stop stop-color="#1C946D"/>
<stop offset="1" stop-color="#C7FFF2"/>
</linearGradient>
<linearGradient id="paint2_linear_2009_561" x1="79.3251" y1="20.04" x2="106.166" y2="165.921" gradientUnits="userSpaceOnUse">
<stop stop-color="#1C946D"/>
<stop offset="1" stop-color="#C7FFF2"/>
</linearGradient>
</defs>
</svg>
