<svg width="146" height="178" viewBox="0 0 146 178" fill="none" xmlns="http://www.w3.org/2000/svg">
<g opacity="0.6">
<path d="M60.3651 -1.51178L33.0486 3.51424C25.8027 4.84743 19.3832 9.00441 15.2023 15.0707C11.0214 21.137 9.42162 28.6157 10.7548 35.8616C12.088 43.1075 16.245 49.5269 22.3113 53.7078C28.3776 57.8887 35.8563 59.4886 43.1021 58.1554L70.4186 53.1294L60.3651 -1.51178Z" stroke="url(#paint0_linear_2009_805)" stroke-width="18.9251"/>
<path d="M130.086 70.3924C131.419 77.6383 129.819 85.117 125.638 91.1833C121.457 97.2496 115.038 101.407 107.792 102.74C100.546 104.073 93.0675 102.473 87.0012 98.2922C80.9349 94.1113 76.7779 87.6918 75.4447 80.446C74.1116 73.2001 75.7114 65.7214 79.8923 59.6551C84.0732 53.5888 90.4927 49.4318 97.7385 48.0986C104.984 46.7654 112.463 48.3653 118.529 52.5462C124.596 56.7271 128.753 63.1466 130.086 70.3924ZM53.1558 112.797L80.4723 107.771L85.4983 135.087C86.4907 140.49 85.8588 146.065 83.6825 151.109C81.5063 156.152 77.8835 160.437 73.2721 163.422C68.6607 166.407 63.2678 167.957 57.7754 167.877C52.2829 167.797 46.9376 166.09 42.4151 162.972C37.8927 159.854 34.3963 155.465 32.3681 150.361C30.3398 145.256 29.8708 139.664 31.0202 134.293C32.1697 128.921 34.8861 124.011 38.8259 120.184C42.7656 116.356 47.7535 113.791 53.1558 112.797Z" stroke="url(#paint1_linear_2009_805)" stroke-width="18.9251"/>
</g>
<path d="M70.4188 53.1296L43.1023 58.1556C35.8575 59.4886 29.439 63.6449 25.2587 69.7103C21.0784 75.7757 19.4788 83.2533 20.8118 90.4981C22.1448 97.7429 26.3012 104.161 32.3666 108.342C38.432 112.522 45.9095 114.122 53.1543 112.789L80.4708 107.763L70.4188 53.1296ZM70.4188 53.1296L97.7351 48.1031C104.981 46.7699 111.4 42.613 115.581 36.5466C119.762 30.4803 121.362 23.0016 120.029 15.7558C118.696 8.50991 114.539 2.09042 108.472 -2.09047C102.406 -6.27137 94.9275 -7.8712 87.6816 -6.53802L60.3651 -1.512L70.4188 53.1296Z" stroke="url(#paint2_linear_2009_805)" stroke-width="18.9251"/>
<defs>
<linearGradient id="paint0_linear_2009_805" x1="60.3672" y1="-1.51216" x2="90.5248" y2="162.395" gradientUnits="userSpaceOnUse">
<stop stop-color="#1C946D"/>
<stop offset="1" stop-color="#C7FFF2"/>
</linearGradient>
<linearGradient id="paint1_linear_2009_805" x1="60.3672" y1="-1.51216" x2="90.5248" y2="162.395" gradientUnits="userSpaceOnUse">
<stop stop-color="#1C946D"/>
<stop offset="1" stop-color="#C7FFF2"/>
</linearGradient>
<linearGradient id="paint2_linear_2009_805" x1="60.3672" y1="-1.51238" x2="80.4728" y2="107.762" gradientUnits="userSpaceOnUse">
<stop stop-color="#1C946D"/>
<stop offset="1" stop-color="#C7FFF2"/>
</linearGradient>
</defs>
</svg>
