<svg width="105" height="32" viewBox="0 0 105 32" fill="none" xmlns="http://www.w3.org/2000/svg">
<path d="M99.8393 17.969C98.9445 17.969 98.1755 17.7733 97.5324 17.3818C96.8892 16.9763 96.3998 16.515 96.0643 15.9977H95.9804L95.8126 17.7173H94.6591V2.19824H96.1272V9.8739C96.309 9.27271 96.7074 8.76939 97.3226 8.36394C97.9378 7.95848 98.6998 7.75576 99.6086 7.75576C100.35 7.75576 101 7.89557 101.559 8.17519C102.118 8.45481 102.58 8.8323 102.943 9.30766C103.321 9.76904 103.6 10.3143 103.782 10.9435C103.978 11.5726 104.076 12.2297 104.076 12.9148C104.076 13.5859 103.985 14.229 103.803 14.8442C103.635 15.4454 103.377 15.9767 103.027 16.4381C102.678 16.8994 102.237 17.2699 101.706 17.5496C101.175 17.8292 100.552 17.969 99.8393 17.969ZM99.6715 16.7317C100.203 16.7317 100.65 16.6198 101.014 16.3961C101.377 16.1724 101.671 15.8858 101.895 15.5363C102.118 15.1728 102.279 14.7673 102.377 14.3199C102.475 13.8725 102.524 13.4251 102.524 12.9777C102.524 12.3905 102.447 11.8522 102.293 11.3629C102.153 10.8736 101.951 10.4541 101.685 10.1046C101.419 9.75506 101.091 9.48243 100.699 9.28669C100.308 9.09096 99.8743 8.99309 99.3989 8.99309C98.6579 8.99309 97.9868 9.21679 97.3855 9.66419C96.7983 10.1116 96.3789 10.7337 96.1272 11.5307V14.6135C96.5327 15.2846 97.057 15.8089 97.7001 16.1864C98.3433 16.5499 99.0004 16.7317 99.6715 16.7317Z" fill="white"/>
<path d="M84.7194 8.07033V14.4457C84.7194 14.8792 84.7683 15.2427 84.8662 15.5363C84.9781 15.8299 85.1179 16.0676 85.2856 16.2493C85.4674 16.4171 85.6771 16.5429 85.9148 16.6268C86.1665 16.6967 86.4391 16.7317 86.7327 16.7317C87.0823 16.7317 87.4248 16.6827 87.7604 16.5849C88.1099 16.473 88.4315 16.3122 88.7251 16.1025C89.0187 15.8928 89.2774 15.6341 89.5011 15.3266C89.7248 15.019 89.8996 14.6624 90.0254 14.257V8.07033H91.4935V17.7173H90.34L90.1722 15.9138H90.0883C89.9066 16.501 89.5011 16.9903 88.8719 17.3818C88.2427 17.7733 87.4598 17.969 86.523 17.969C86.0756 17.969 85.6492 17.9131 85.2437 17.8012C84.8522 17.6894 84.5097 17.5076 84.2161 17.256C83.9224 16.9903 83.6848 16.6478 83.503 16.2283C83.3352 15.7949 83.2513 15.2636 83.2513 14.6345V8.07033H84.7194Z" fill="white"/>
<path d="M70.8306 9.85289H78.2968V3.87594H79.8697V17.7173H78.2968V11.3209H70.8306V17.7173H69.2577V3.87594H70.8306V9.85289Z" fill="white"/>
<path d="M65.7183 17.7173H63.4113V2.19824H65.7183V17.7173Z" fill="white"/>
<path d="M58.756 17.7173L58.5882 16.3961H58.5043C58.1268 16.8714 57.6095 17.2559 56.9524 17.5495C56.3092 17.8291 55.6521 17.969 54.981 17.969C54.1001 17.969 53.408 17.7173 52.9047 17.214C52.4014 16.6967 52.1497 16.0186 52.1497 15.1797C52.1497 14.6065 52.2685 14.0962 52.5062 13.6488C52.7579 13.1874 53.1144 12.8029 53.5758 12.4953C54.0372 12.1738 54.5895 11.9291 55.2326 11.7613C55.8758 11.5935 56.5958 11.5097 57.3928 11.5097H58.2946V11.1951C58.2946 10.6498 58.1198 10.2513 57.7703 9.99969C57.4068 9.74803 56.8405 9.6222 56.0715 9.6222C55.0369 9.6222 54.1141 9.85289 53.3032 10.3143L52.8628 8.57361C53.7995 8.02834 54.932 7.75571 56.2603 7.75571C57.6584 7.75571 58.721 8.04232 59.4481 8.61555C59.7836 8.88119 60.0563 9.22373 60.266 9.64317C60.4897 10.0626 60.6016 10.5659 60.6016 11.1531V17.7173H58.756ZM55.8828 16.1025C56.3302 16.1025 56.7776 15.9976 57.225 15.7879C57.6724 15.5642 58.0289 15.2706 58.2946 14.9071V12.9986H57.8961C56.7496 12.9986 55.9107 13.1454 55.3794 13.4391C54.8621 13.7327 54.6035 14.201 54.6035 14.8442C54.6035 15.683 55.0299 16.1025 55.8828 16.1025Z" fill="white"/>
<path d="M50.7625 10.1675C50.6227 10.0556 50.406 9.96473 50.1124 9.89483C49.8188 9.82492 49.5671 9.78997 49.3574 9.78997C49.0777 9.78997 48.847 9.85988 48.6653 9.99969C48.4835 10.1255 48.3227 10.3003 48.1829 10.524C48.0431 10.7337 47.9243 10.9784 47.8264 11.258C47.7285 11.5376 47.6376 11.8242 47.5537 12.1178V17.7173H45.2468V8.07029H47.0504L47.1553 10.0836H47.2392C47.379 9.78997 47.5258 9.50336 47.6796 9.22373C47.8334 8.94411 48.0081 8.69944 48.2039 8.48972C48.3996 8.26602 48.6233 8.09126 48.875 7.96543C49.1406 7.82562 49.4482 7.75571 49.7978 7.75571C50.357 7.75571 50.8814 7.93747 51.3707 8.30098L50.7625 10.1675Z" fill="white"/>
<path d="M44.1367 17.7173H41.5152L39.9423 13.6907H34.7201L33.294 17.7173H30.7773L36.1463 3.87594H38.2225L44.1367 17.7173ZM35.3913 11.8033H39.1873L37.1949 6.70713L35.3913 11.8033Z" fill="white"/>
<path d="M72.6403 28.248C72.5282 28.4871 72.3937 28.7674 72.2368 29.0887C72.0798 29.4175 71.893 29.7276 71.6763 30.019C71.4596 30.3105 71.2055 30.5571 70.9141 30.7588C70.6226 30.9681 70.2938 31.0727 69.9276 31.0727C69.8679 31.0727 69.823 31.069 69.7931 31.0615C69.7632 31.0615 69.7296 31.054 69.6922 31.0391L69.5465 30.2993C69.5689 30.3067 69.5951 30.3142 69.625 30.3217C69.6549 30.3292 69.7072 30.3329 69.7819 30.3329C69.9314 30.3329 70.0696 30.318 70.1967 30.2881C70.3312 30.2582 70.4619 30.1984 70.589 30.1087C70.8505 29.9219 71.0859 29.6491 71.2952 29.2905C71.5119 28.9318 71.7062 28.5133 71.8781 28.035L69.2999 23.047H70.2303L72.2816 27.3401L74.1199 23.047H75.0055L72.6403 28.248Z" fill="white"/>
<path d="M64.1941 28.2031V24.7956C64.1941 24.3398 64.0895 24.0184 63.8803 23.8316C63.671 23.6373 63.4095 23.5402 63.0956 23.5402C62.7145 23.5402 62.3707 23.6598 62.0643 23.8989C61.758 24.1305 61.5375 24.4631 61.403 24.8965V28.2031H60.6183V23.047H61.2349L61.3245 24.011H61.3694C61.4665 23.6971 61.6683 23.4318 61.9747 23.2151C62.2885 22.9909 62.6921 22.8789 63.1853 22.8789C63.6337 22.8789 64.0073 22.9797 64.3062 23.1815C64.6126 23.3758 64.8069 23.6523 64.8891 24.011C64.9638 23.8615 65.0572 23.7195 65.1693 23.585C65.2814 23.4505 65.416 23.331 65.5729 23.2263C65.7298 23.1217 65.9092 23.0395 66.1109 22.9797C66.3127 22.9125 66.5406 22.8789 66.7947 22.8789C67.0264 22.8789 67.2468 22.9125 67.4561 22.9797C67.6728 23.0395 67.8596 23.1404 68.0165 23.2824C68.1809 23.4244 68.3117 23.6112 68.4089 23.8428C68.506 24.0745 68.5546 24.3584 68.5546 24.6947V28.2031H67.7699V24.7956C67.7699 24.3398 67.6653 24.0184 67.4561 23.8316C67.2468 23.6373 66.9853 23.5402 66.6714 23.5402C66.2903 23.5402 65.9465 23.6598 65.6401 23.8989C65.3337 24.1305 65.1133 24.4631 64.9788 24.8965V28.2031H64.1941Z" fill="white"/>
<path d="M57.1367 22.8789C57.7943 22.8789 58.3025 23.047 58.6612 23.3833C59.0199 23.7121 59.1992 24.1791 59.1992 24.7844C59.1992 24.9114 59.1918 25.0422 59.1768 25.1767C59.1619 25.3037 59.1357 25.3972 59.0984 25.4569H55.3208V25.569C55.3208 25.853 55.3582 26.1257 55.4329 26.3873C55.5076 26.6488 55.6197 26.8805 55.7692 27.0822C55.9186 27.284 56.1055 27.4447 56.3296 27.5642C56.5613 27.6838 56.8341 27.7436 57.1479 27.7436C57.3273 27.7436 57.5029 27.7249 57.6748 27.6875C57.8466 27.6427 58.011 27.5904 58.168 27.5306C58.3249 27.4634 58.4706 27.3924 58.6051 27.3176C58.7397 27.2429 58.8592 27.1682 58.9638 27.0935L59.0984 27.7324C59.0012 27.7922 58.8816 27.8594 58.7397 27.9341C58.5977 28.0014 58.4407 28.0649 58.2689 28.1247C58.097 28.1845 57.9064 28.233 57.6972 28.2704C57.4954 28.3152 57.2824 28.3377 57.0583 28.3377C56.6398 28.3377 56.2699 28.2667 55.9485 28.1247C55.6272 27.9752 55.3582 27.7772 55.1415 27.5306C54.9247 27.2765 54.7603 26.9851 54.6482 26.6563C54.5361 26.3275 54.4801 25.9838 54.4801 25.6251C54.4801 25.2589 54.5361 24.9114 54.6482 24.5826C54.7678 24.2464 54.9397 23.9512 55.1639 23.6971C55.3881 23.443 55.6646 23.245 55.9934 23.103C56.3296 22.9536 56.7108 22.8789 57.1367 22.8789ZM57.1031 23.5066C56.6099 23.5066 56.225 23.6373 55.9485 23.8989C55.6795 24.1529 55.4964 24.4743 55.3993 24.8629H58.4594C58.4669 24.8255 58.4706 24.7919 58.4706 24.762C58.4706 24.7321 58.4706 24.6985 58.4706 24.6611C58.4706 24.4743 58.4333 24.3099 58.3585 24.1679C58.2838 24.0184 58.1829 23.8951 58.0559 23.798C57.9288 23.7009 57.7831 23.6299 57.6187 23.585C57.4543 23.5327 57.2824 23.5066 57.1031 23.5066Z" fill="white"/>
<path d="M50.308 28.3377C49.9269 28.3377 49.5944 28.263 49.3104 28.1135C49.0264 27.9641 48.791 27.7661 48.6042 27.5195C48.4174 27.2729 48.2754 26.9889 48.1782 26.6676C48.0886 26.3388 48.0437 25.995 48.0437 25.6363C48.0437 25.2702 48.0923 24.919 48.1895 24.5827C48.2941 24.2464 48.4435 23.955 48.6378 23.7084C48.8396 23.4543 49.0899 23.2525 49.3889 23.1031C49.6878 22.9536 50.0353 22.8789 50.4313 22.8789C50.932 22.8789 51.343 22.9873 51.6644 23.204C51.9857 23.4207 52.1949 23.6897 52.2921 24.011V19.9085H53.0767V28.2032H52.4602L52.3706 27.2841H52.3257C52.1464 27.5606 51.8848 27.8072 51.5411 28.0239C51.1973 28.2331 50.7863 28.3377 50.308 28.3377ZM50.3977 27.6764C50.7564 27.6764 51.1076 27.5792 51.4514 27.3849C51.8026 27.1907 52.0828 26.9104 52.2921 26.5443V24.8965C52.1576 24.4706 51.9296 24.1381 51.6083 23.8989C51.2945 23.6598 50.9395 23.5402 50.5434 23.5402C50.2819 23.5402 50.0465 23.5926 49.8372 23.6972C49.6355 23.8018 49.4636 23.9475 49.3216 24.1343C49.1796 24.3211 49.0675 24.5453 48.9853 24.8069C48.9106 25.0684 48.8732 25.3561 48.8732 25.67C48.8732 25.9091 48.8994 26.1482 48.9517 26.3873C49.004 26.6265 49.0899 26.8432 49.2095 27.0375C49.3291 27.2243 49.486 27.3775 49.6803 27.497C49.8746 27.6166 50.1137 27.6764 50.3977 27.6764Z" fill="white"/>
<path d="M46.0703 28.2031L45.9807 27.284H45.9358C45.8462 27.426 45.7266 27.5605 45.5771 27.6875C45.4277 27.8146 45.2595 27.9267 45.0727 28.0238C44.8934 28.121 44.6953 28.1957 44.4786 28.248C44.2694 28.3078 44.0601 28.3377 43.8509 28.3377C43.3577 28.3377 42.9878 28.1957 42.7412 27.9117C42.4946 27.6203 42.3713 27.2579 42.3713 26.8244C42.3713 26.3985 42.4796 26.0585 42.6963 25.8044C42.913 25.5503 43.1783 25.3598 43.4922 25.2328C43.8061 25.1057 44.1349 25.0235 44.4786 24.9862C44.8298 24.9488 45.1362 24.9301 45.3978 24.9301H45.9022V24.7956C45.9022 24.5116 45.8611 24.2949 45.7789 24.1455C45.7042 23.996 45.5921 23.869 45.4426 23.7644C45.3156 23.6822 45.1773 23.6261 45.0279 23.5962C44.8859 23.5589 44.6953 23.5402 44.4562 23.5402C44.1423 23.5402 43.8658 23.5813 43.6267 23.6635C43.3876 23.7457 43.1559 23.854 42.9317 23.9886L42.7524 23.316C43.2531 23.0246 43.8509 22.8789 44.5459 22.8789C44.8224 22.8789 45.0839 22.905 45.3305 22.9573C45.5771 23.0022 45.7938 23.0844 45.9807 23.2039C46.1974 23.3384 46.3693 23.529 46.4963 23.7756C46.6233 24.0222 46.6869 24.3286 46.6869 24.6947V28.2031H46.0703ZM44.0863 27.6763C44.3927 27.6763 44.7177 27.5792 45.0615 27.3849C45.4053 27.1906 45.6855 26.9104 45.9022 26.5442V25.5018H45.8013C45.4949 25.5018 45.1885 25.513 44.8821 25.5354C44.5758 25.5578 44.2955 25.6139 44.0414 25.7035C43.7948 25.7932 43.5931 25.924 43.4361 26.0958C43.2792 26.2603 43.2007 26.4882 43.2007 26.7796C43.2007 27.071 43.2792 27.2952 43.4361 27.4521C43.6005 27.6016 43.8173 27.6763 44.0863 27.6763Z" fill="white"/>
<path d="M41.2167 23.9886C41.0448 23.8615 40.7982 23.7494 40.4769 23.6523C40.1556 23.5477 39.8342 23.4954 39.5129 23.4954C39.1841 23.4954 38.9038 23.5514 38.6722 23.6635C38.448 23.7756 38.2612 23.925 38.1117 24.1118C37.9623 24.2987 37.8539 24.5154 37.7866 24.762C37.7194 25.0011 37.6858 25.2514 37.6858 25.513C37.6858 25.8044 37.7269 26.0846 37.8091 26.3537C37.8913 26.6227 38.0108 26.8581 38.1678 27.0598C38.3322 27.2616 38.5302 27.4223 38.7619 27.5418C39.001 27.6614 39.2775 27.7212 39.5913 27.7212C39.8903 27.7212 40.1967 27.6576 40.5105 27.5306C40.8319 27.4036 41.0971 27.2429 41.3064 27.0486L41.4633 27.7772C41.2541 27.9117 40.9664 28.0387 40.6002 28.1583C40.2415 28.2779 39.8566 28.3377 39.4456 28.3377C39.0122 28.3377 38.6311 28.2629 38.3023 28.1135C37.9809 27.964 37.7119 27.766 37.4952 27.5194C37.286 27.2653 37.1253 26.9739 37.0132 26.6451C36.9086 26.3088 36.8563 25.9539 36.8563 25.5802C36.8563 25.2215 36.9048 24.8815 37.002 24.5602C37.1066 24.2314 37.2673 23.9437 37.484 23.6971C37.7007 23.443 37.9772 23.245 38.3135 23.103C38.6498 22.9536 39.0533 22.8789 39.5241 22.8789C39.8828 22.8789 40.234 22.92 40.5778 23.0022C40.9215 23.0844 41.198 23.1927 41.4073 23.3272L41.2167 23.9886Z" fill="white"/>
<path d="M34.8829 28.2031L34.7932 27.284H34.7484C34.6587 27.426 34.5391 27.5605 34.3897 27.6875C34.2402 27.8146 34.0721 27.9267 33.8852 28.0238C33.7059 28.121 33.5079 28.1957 33.2911 28.248C33.0819 28.3078 32.8727 28.3377 32.6634 28.3377C32.1702 28.3377 31.8003 28.1957 31.5537 27.9117C31.3071 27.6203 31.1838 27.2579 31.1838 26.8244C31.1838 26.3985 31.2921 26.0585 31.5089 25.8044C31.7256 25.5503 31.9909 25.3598 32.3047 25.2328C32.6186 25.1057 32.9474 25.0235 33.2911 24.9862C33.6424 24.9488 33.9488 24.9301 34.2103 24.9301H34.7147V24.7956C34.7147 24.5116 34.6736 24.2949 34.5914 24.1455C34.5167 23.996 34.4046 23.869 34.2551 23.7644C34.1281 23.6822 33.9899 23.6261 33.8404 23.5962C33.6984 23.5589 33.5079 23.5402 33.2687 23.5402C32.9549 23.5402 32.6784 23.5813 32.4392 23.6635C32.2001 23.7457 31.9684 23.854 31.7443 23.9886L31.5649 23.316C32.0656 23.0246 32.6634 22.8789 33.3584 22.8789C33.6349 22.8789 33.8964 22.905 34.1431 22.9573C34.3897 23.0022 34.6064 23.0844 34.7932 23.2039C35.0099 23.3384 35.1818 23.529 35.3088 23.7756C35.4359 24.0222 35.4994 24.3286 35.4994 24.6947V28.2031H34.8829ZM32.8988 27.6763C33.2052 27.6763 33.5303 27.5792 33.874 27.3849C34.2178 27.1906 34.498 26.9104 34.7147 26.5442V25.5018H34.6138C34.3075 25.5018 34.0011 25.513 33.6947 25.5354C33.3883 25.5578 33.1081 25.6139 32.854 25.7035C32.6074 25.7932 32.4056 25.924 32.2487 26.0958C32.0917 26.2603 32.0133 26.4882 32.0133 26.7796C32.0133 27.071 32.0917 27.2952 32.2487 27.4521C32.4131 27.6016 32.6298 27.6763 32.8988 27.6763Z" fill="white"/>
<path d="M21.8747 2.72433V22.2755L21.7384 22.3978L18.2701 25.4639V13.7021L18.2499 13.7138L12.7102 16.6878L12.6664 16.7112L12.6193 16.7364L12.589 16.7531V30.4837L10.8725 32L9.1258 30.4569V18.6012L3.46656 21.6237V25.4539L0.765672 23.0663L0.00336559 22.3978L0 22.3945V2.73773C0 1.22478 0.829618 0 1.85444 0H10.7396C11.7594 0 12.5873 1.22143 12.5873 2.72601V3.42803H12.6176V11.3732L12.5873 11.3899L9.12243 13.2514V3.42803H3.46488V17.7366L9.12748 14.7141L12.6193 12.8493L18.2499 9.84345V8.34557L18.2701 8.33384V0H20.032C21.0518 0 21.8763 1.21975 21.8763 2.72433H21.8747Z" fill="white"/>
</svg>
