<svg width="146" height="57" viewBox="0 0 146 57" fill="none" xmlns="http://www.w3.org/2000/svg">
<path d="M137.562 31.1325C135.779 31.1325 134.248 30.7461 132.967 29.9733C131.685 29.1729 130.711 28.2621 130.042 27.2409H129.875L129.541 30.6357H127.243V0H130.168V15.1522C130.53 13.9655 131.323 12.9719 132.549 12.1715C133.774 11.3711 135.292 10.9709 137.102 10.9709C138.578 10.9709 139.873 11.2469 140.987 11.7989C142.101 12.3509 143.02 13.0961 143.744 14.0345C144.496 14.9452 145.053 16.0216 145.415 17.2636C145.805 18.5056 146 19.8028 146 21.1552C146 22.48 145.819 23.7496 145.457 24.9639C145.123 26.1507 144.608 27.1995 143.911 28.1103C143.215 29.0211 142.338 29.7525 141.28 30.3045C140.221 30.8565 138.982 31.1325 137.562 31.1325ZM137.227 28.6899C138.286 28.6899 139.177 28.4691 139.901 28.0275C140.625 27.5859 141.21 27.0201 141.656 26.3301C142.101 25.6125 142.421 24.8121 142.616 23.9289C142.811 23.0458 142.909 22.1626 142.909 21.2794C142.909 20.1202 142.756 19.0576 142.449 18.0916C142.171 17.1256 141.767 16.2976 141.238 15.6076C140.709 14.9176 140.054 14.3794 139.274 13.9931C138.495 13.6067 137.631 13.4135 136.684 13.4135C135.208 13.4135 133.872 13.8551 132.674 14.7382C131.504 15.6214 130.669 16.8496 130.168 18.4228V24.5085C130.975 25.8333 132.02 26.8683 133.301 27.6135C134.582 28.3311 135.891 28.6899 137.227 28.6899Z" fill="#0F5649"/>
<path d="M107.445 11.5919V24.1773C107.445 25.0329 107.542 25.7505 107.737 26.3301C107.96 26.9097 108.239 27.3789 108.573 27.7377C108.935 28.0689 109.353 28.3173 109.826 28.4829C110.327 28.6209 110.87 28.6899 111.455 28.6899C112.151 28.6899 112.834 28.5933 113.502 28.4001C114.198 28.1793 114.839 27.8619 115.424 27.4479C116.009 27.0339 116.524 26.5233 116.969 25.9161C117.415 25.3089 117.763 24.6051 118.014 23.8047V11.5919H120.938V30.6357H118.64L118.306 27.0753H118.139C117.777 28.2345 116.969 29.2005 115.716 29.9733C114.463 30.7461 112.903 31.1325 111.037 31.1325C110.146 31.1325 109.297 31.0221 108.489 30.8013C107.709 30.5805 107.027 30.2217 106.442 29.7249C105.858 29.2005 105.384 28.5243 105.022 27.6963C104.688 26.8407 104.521 25.7919 104.521 24.5499V11.5919H107.445Z" fill="#0F5649"/>
<path d="M79.7805 15.1108H94.652V3.31189H97.7851V30.6356H94.652V18.0087H79.7805V30.6356H76.6475V3.31189H79.7805V15.1108Z" fill="#0F5649"/>
<path d="M69.5974 30.6357H65.0023V0H69.5974V30.6357Z" fill="#0F5649"/>
<path d="M55.7295 30.6356L55.3953 28.0274H55.2282C54.4763 28.9658 53.4459 29.7248 52.1369 30.3044C50.8559 30.8564 49.547 31.1324 48.2102 31.1324C46.4557 31.1324 45.0771 30.6356 44.0746 29.642C43.072 28.6208 42.5707 27.2822 42.5707 25.6262C42.5707 24.4946 42.8074 23.4873 43.2809 22.6041C43.7821 21.6933 44.4923 20.9343 45.4113 20.3271C46.3304 19.6923 47.4304 19.2093 48.7115 18.8781C49.9925 18.5469 51.4268 18.3813 53.0142 18.3813H54.8105V17.7603C54.8105 16.6839 54.4624 15.8973 53.7661 15.4005C53.042 14.9038 51.9142 14.6554 50.3824 14.6554C48.3216 14.6554 46.4835 15.1108 44.8683 16.0215L43.991 12.5854C45.8569 11.509 48.1127 10.9708 50.7584 10.9708C53.5433 10.9708 55.6599 11.5366 57.108 12.6682C57.7764 13.1926 58.3195 13.8688 58.7372 14.6968C59.1828 15.5247 59.4056 16.5183 59.4056 17.6775V30.6356H55.7295ZM50.0065 27.4478C50.8976 27.4478 51.7888 27.2408 52.68 26.8268C53.5712 26.3852 54.2813 25.8056 54.8105 25.088V21.3207H54.0168C51.7331 21.3207 50.0622 21.6105 49.0039 22.1901C47.9735 22.7697 47.4583 23.6943 47.4583 24.9639C47.4583 26.6198 48.3077 27.4478 50.0065 27.4478Z" fill="#0F5649"/>
<path d="M39.8076 15.7317C39.5291 15.5109 39.0975 15.3315 38.5126 15.1936C37.9278 15.0556 37.4265 14.9866 37.0088 14.9866C36.4518 14.9866 35.9923 15.1245 35.6302 15.4005C35.2682 15.6489 34.9479 15.9939 34.6694 16.4355C34.3909 16.8495 34.1542 17.3325 33.9593 17.8845C33.7643 18.4365 33.5833 19.0023 33.4162 19.5819V30.6356H28.8211V11.5918H32.4136L32.6225 15.5661H32.7896C33.0681 14.9866 33.3605 14.4208 33.6668 13.8688C33.9732 13.3168 34.3213 12.8338 34.7112 12.4198C35.1011 11.9782 35.5467 11.6332 36.048 11.3848C36.5771 11.1088 37.1898 10.9708 37.886 10.9708C39 10.9708 40.0443 11.3296 41.0191 12.0472L39.8076 15.7317Z" fill="#0F5649"/>
<path d="M26.61 30.6356H21.3883L18.2552 22.6869H7.85351L5.01288 30.6356H0L10.6941 3.31189H14.8298L26.61 30.6356ZM9.19027 18.9609H16.7514L12.7828 8.90083L9.19027 18.9609Z" fill="#0F5649"/>
<path d="M83.3851 51.4239C83.1618 51.896 82.8939 52.4491 82.5813 53.0835C82.2687 53.7325 81.8966 54.3447 81.4649 54.92C81.0333 55.4953 80.5272 55.9821 79.9467 56.3804C79.3661 56.7935 78.7112 57 77.9818 57C77.8628 57 77.7735 56.9926 77.7139 56.9779C77.6544 56.9779 77.5874 56.9631 77.513 56.9336L77.2227 55.4732C77.2674 55.488 77.3195 55.5027 77.379 55.5175C77.4385 55.5322 77.5427 55.5396 77.6916 55.5396C77.9893 55.5396 78.2647 55.5101 78.5177 55.4511C78.7856 55.3921 79.0461 55.2741 79.2992 55.097C79.8201 54.7283 80.289 54.1898 80.7058 53.4818C81.1375 52.7737 81.5245 51.9476 81.8668 51.0035L76.7315 41.1568H78.5847L82.6706 49.6316L86.3323 41.1568H88.0962L83.3851 51.4239Z" fill="#0F5649"/>
<path d="M66.5615 51.3353V44.6086C66.5615 43.7088 66.3531 43.0745 65.9363 42.7057C65.5196 42.3221 64.9986 42.1304 64.3734 42.1304C63.6143 42.1304 62.9296 42.3664 62.3193 42.8384C61.709 43.2957 61.2699 43.9522 61.002 44.8078V51.3353H59.439V41.1568H60.6671L60.8457 43.0597H60.935C61.1285 42.4401 61.5304 41.9165 62.1407 41.4887C62.7658 41.0461 63.5696 40.8248 64.552 40.8248C65.4451 40.8248 66.1894 41.024 66.7848 41.4223C67.3951 41.8058 67.7821 42.3516 67.9458 43.0597C68.0947 42.7647 68.2807 42.4844 68.504 42.2189C68.7273 41.9533 68.9952 41.7173 69.3078 41.5108C69.6204 41.3043 69.9776 41.142 70.3795 41.024C70.7814 40.8912 71.2354 40.8248 71.7415 40.8248C72.2029 40.8248 72.642 40.8912 73.0588 41.024C73.4905 41.142 73.8626 41.3411 74.1752 41.6214C74.5026 41.9017 74.7631 42.2705 74.9566 42.7278C75.1501 43.1851 75.2469 43.7457 75.2469 44.4095V51.3353H73.684V44.6086C73.684 43.7088 73.4756 43.0745 73.0588 42.7057C72.642 42.3221 72.121 42.1304 71.4959 42.1304C70.7367 42.1304 70.052 42.3664 69.4417 42.8384C68.8315 43.2957 68.3924 43.9522 68.1244 44.8078V51.3353H66.5615Z" fill="#0F5649"/>
<path d="M52.5041 40.8248C53.814 40.8248 54.8262 41.1568 55.5407 41.8206C56.2552 42.4696 56.6124 43.3916 56.6124 44.5865C56.6124 44.8373 56.5975 45.0954 56.5677 45.3609C56.538 45.6117 56.4859 45.7961 56.4114 45.9141H48.8871V46.1354C48.8871 46.696 48.9615 47.2344 49.1104 47.7507C49.2592 48.267 49.4825 48.7243 49.7802 49.1226C50.0779 49.5209 50.45 49.8381 50.8966 50.0741C51.358 50.3101 51.9013 50.4281 52.5265 50.4281C52.8837 50.4281 53.2335 50.3912 53.5759 50.3175C53.9182 50.229 54.2457 50.1257 54.5583 50.0077C54.8708 49.8749 55.1611 49.7348 55.429 49.5873C55.697 49.4398 55.9351 49.2922 56.1435 49.1447L56.4114 50.406C56.2179 50.524 55.9798 50.6568 55.697 50.8043C55.4142 50.937 55.1016 51.0624 54.7592 51.1804C54.4169 51.2985 54.0373 51.3943 53.6205 51.4681C53.2186 51.5566 52.7944 51.6009 52.3478 51.6009C51.5143 51.6009 50.7775 51.4607 50.1374 51.1804C49.4974 50.8854 48.9615 50.4945 48.5299 50.0077C48.0982 49.5061 47.7707 48.9308 47.5474 48.2818C47.3242 47.6327 47.2125 46.9541 47.2125 46.246C47.2125 45.5232 47.3242 44.8373 47.5474 44.1882C47.7856 43.5244 48.128 42.9417 48.5745 42.4401C49.0211 41.9386 49.5718 41.5477 50.2267 41.2674C50.8966 40.9724 51.6557 40.8248 52.5041 40.8248ZM52.4372 42.064C51.4547 42.064 50.6882 42.3221 50.1374 42.8384C49.6016 43.34 49.2369 43.9743 49.0434 44.7414H55.1388C55.1537 44.6676 55.1611 44.6012 55.1611 44.5422C55.1611 44.4832 55.1611 44.4168 55.1611 44.3431C55.1611 43.9743 55.0867 43.6498 54.9378 43.3695C54.789 43.0745 54.588 42.8311 54.335 42.6393C54.0819 42.4475 53.7917 42.3074 53.4642 42.2189C53.1367 42.1156 52.7944 42.064 52.4372 42.064Z" fill="#0F5649"/>
<path d="M38.9024 51.601C38.1432 51.601 37.4808 51.4535 36.9152 51.1584C36.3496 50.8634 35.8807 50.4725 35.5086 49.9857C35.1365 49.4989 34.8536 48.9383 34.6601 48.304C34.4815 47.6549 34.3922 46.9764 34.3922 46.2683C34.3922 45.5455 34.489 44.8521 34.6825 44.1883C34.8909 43.5245 35.1886 42.9492 35.5756 42.4624C35.9775 41.9608 36.4761 41.5625 37.0715 41.2675C37.6669 40.9725 38.3591 40.825 39.148 40.825C40.1453 40.825 40.9639 41.0388 41.604 41.4666C42.244 41.8944 42.6608 42.4255 42.8543 43.0598V34.9612H44.4172V51.3354H43.1892L43.0106 49.521H42.9213C42.5641 50.0668 42.0431 50.5536 41.3584 50.9814C40.6737 51.3945 39.855 51.601 38.9024 51.601ZM39.081 50.2955C39.7955 50.2955 40.495 50.1037 41.1798 49.7201C41.8794 49.3366 42.4375 48.7834 42.8543 48.0606V44.8079C42.5864 43.967 42.1324 43.3106 41.4923 42.8385C40.8672 42.3665 40.1601 42.1305 39.3712 42.1305C38.8503 42.1305 38.3814 42.2337 37.9646 42.4403C37.5627 42.6468 37.2204 42.9344 36.9375 43.3032C36.6547 43.672 36.4314 44.1146 36.2677 44.6309C36.1189 45.1472 36.0444 45.7151 36.0444 46.3347C36.0444 46.8067 36.0965 47.2788 36.2007 47.7508C36.3049 48.2229 36.4761 48.6507 36.7143 49.0342C36.9524 49.403 37.265 49.7054 37.652 49.9414C38.039 50.1774 38.5153 50.2955 39.081 50.2955Z" fill="#0F5649"/>
<path d="M30.4615 51.3353L30.2829 49.5209H30.1936C30.0149 49.8012 29.7768 50.0667 29.4791 50.3175C29.1814 50.5682 28.8465 50.7895 28.4743 50.9813C28.1171 51.1731 27.7227 51.3206 27.291 51.4238C26.8742 51.5419 26.4574 51.6009 26.0407 51.6009C25.0582 51.6009 24.3214 51.3206 23.8302 50.76C23.339 50.1847 23.0934 49.4693 23.0934 48.6137C23.0934 47.7728 23.3093 47.1016 23.7409 46.6001C24.1726 46.0985 24.701 45.7224 25.3262 45.4716C25.9513 45.2208 26.6063 45.0585 27.291 44.9848C27.9906 44.911 28.6009 44.8741 29.1218 44.8741H30.1266V44.6086C30.1266 44.0481 30.0447 43.6203 29.881 43.3252C29.7321 43.0302 29.5089 42.7794 29.2112 42.5729C28.9581 42.4106 28.6827 42.3 28.385 42.241C28.1022 42.1672 27.7227 42.1304 27.2463 42.1304C26.6212 42.1304 26.0704 42.2115 25.5941 42.3738C25.1178 42.536 24.6563 42.7499 24.2098 43.0154L23.8526 41.6878C24.8499 41.1125 26.0407 40.8248 27.425 40.8248C27.9757 40.8248 28.4967 40.8765 28.9879 40.9797C29.4791 41.0682 29.9107 41.2305 30.2829 41.4665C30.7145 41.7321 31.0569 42.1082 31.3099 42.595C31.563 43.0818 31.6895 43.6866 31.6895 44.4095V51.3353H30.4615ZM26.5095 50.2953C27.1198 50.2953 27.7673 50.1036 28.452 49.72C29.1367 49.3365 29.6949 48.7833 30.1266 48.0605V46.0026H29.9256C29.3153 46.0026 28.7051 46.0248 28.0948 46.069C27.4845 46.1133 26.9263 46.2239 26.4202 46.4009C25.929 46.5779 25.5271 46.8361 25.2145 47.1754C24.902 47.4999 24.7457 47.9499 24.7457 48.5252C24.7457 49.1005 24.902 49.543 25.2145 49.8528C25.542 50.1478 25.9737 50.2953 26.5095 50.2953Z" fill="#0F5649"/>
<path d="M20.7937 43.0154C20.4514 42.7647 19.9602 42.5434 19.3201 42.3516C18.6801 42.1451 18.04 42.0418 17.4 42.0418C16.745 42.0418 16.1868 42.1525 15.7254 42.3738C15.2788 42.595 14.9067 42.8901 14.609 43.2589C14.3113 43.6276 14.0955 44.0554 13.9615 44.5422C13.8276 45.0143 13.7606 45.5085 13.7606 46.0248C13.7606 46.6001 13.8424 47.1533 14.0062 47.6843C14.1699 48.2154 14.4081 48.6801 14.7207 49.0783C15.0481 49.4766 15.4426 49.7938 15.904 50.0298C16.3803 50.2658 16.9311 50.3839 17.5562 50.3839C18.1516 50.3839 18.7619 50.2585 19.3871 50.0077C20.0272 49.7569 20.5556 49.4398 20.9724 49.0562L21.2849 50.4945C20.8682 50.76 20.2951 51.0108 19.5657 51.2468C18.8512 51.4828 18.0847 51.6009 17.266 51.6009C16.4027 51.6009 15.6435 51.4534 14.9886 51.1583C14.3485 50.8633 13.8127 50.4724 13.381 49.9856C12.9642 49.484 12.6442 48.9087 12.4209 48.2596C12.2125 47.5958 12.1083 46.8951 12.1083 46.1575C12.1083 45.4495 12.2051 44.7783 12.3986 44.1439C12.607 43.4949 12.927 42.9269 13.3587 42.4401C13.7903 41.9386 14.3411 41.5477 15.0109 41.2674C15.6807 40.9724 16.4845 40.8248 17.4223 40.8248C18.1368 40.8248 18.8364 40.906 19.5211 41.0682C20.2058 41.2305 20.7565 41.4444 21.1733 41.7099L20.7937 43.0154Z" fill="#0F5649"/>
<path d="M8.17763 51.3353L7.99901 49.5209H7.9097C7.73108 49.8012 7.49292 50.0667 7.19522 50.3175C6.89752 50.5682 6.56261 50.7895 6.19049 50.9813C5.83325 51.1731 5.4388 51.3206 5.00713 51.4238C4.59035 51.5419 4.17357 51.6009 3.75679 51.6009C2.77438 51.6009 2.03758 51.3206 1.54637 50.76C1.05517 50.1847 0.809568 49.4693 0.809568 48.6137C0.809568 47.7728 1.0254 47.1016 1.45706 46.6001C1.88873 46.0985 2.41715 45.7224 3.04231 45.4716C3.66748 45.2208 4.32242 45.0585 5.00713 44.9848C5.70673 44.911 6.31701 44.8741 6.83798 44.8741H7.84272V44.6086C7.84272 44.0481 7.76085 43.6203 7.59712 43.3252C7.44827 43.0302 7.22499 42.7794 6.92729 42.5729C6.67425 42.4106 6.39888 42.3 6.10118 42.241C5.81836 42.1672 5.4388 42.1304 4.96248 42.1304C4.33731 42.1304 3.78656 42.2115 3.31024 42.3738C2.83392 42.536 2.37249 42.7499 1.92594 43.0154L1.5687 41.6878C2.56599 41.1125 3.75679 40.8248 5.1411 40.8248C5.69184 40.8248 6.21282 40.8765 6.70402 40.9797C7.19522 41.0682 7.62689 41.2305 7.99901 41.4665C8.43068 41.7321 8.77303 42.1082 9.02608 42.595C9.27912 43.0818 9.40564 43.6866 9.40564 44.4095V51.3353H8.17763ZM4.22567 50.2953C4.83595 50.2953 5.48345 50.1036 6.16816 49.72C6.85287 49.3365 7.41106 48.7833 7.84272 48.0605V46.0026H7.64177C7.03149 46.0026 6.4212 46.0248 5.81092 46.069C5.20064 46.1133 4.64245 46.2239 4.13636 46.4009C3.64516 46.5779 3.24326 46.8361 2.93068 47.1754C2.61809 47.4999 2.4618 47.9499 2.4618 48.5252C2.4618 49.1005 2.61809 49.543 2.93068 49.8528C3.25815 50.1478 3.68981 50.2953 4.22567 50.2953Z" fill="#0F5649"/>
</svg>
