<svg width="193" height="230" viewBox="0 0 193 230" fill="none" xmlns="http://www.w3.org/2000/svg">
<path opacity="0.25" d="M189.497 19.521L121.953 0.187425C120.902 -0.114776 119.779 -0.0500652 118.769 0.370945L2.98031 48.7057C2.10314 49.0734 1.35399 49.6926 0.826975 50.4855C0.29996 51.2784 0.0185823 52.2097 0.0181896 53.1623V178.832C0.0181896 181.483 2.14898 183.639 4.79449 183.666C2.12998 183.682 -0.0166379 185.86 9.71892e-05 188.529C0.00631849 189.542 0.329969 190.527 0.925343 191.346C1.52072 192.164 2.35773 192.775 3.31818 193.091L119.107 231.758C119.6 231.918 120.114 232 120.632 232C121.079 231.997 121.524 231.932 121.954 231.807L189.497 212.473C190.505 212.185 191.392 211.577 192.023 210.739C192.655 209.902 192.998 208.882 193 207.832V24.1611C192.998 23.1115 192.655 22.0911 192.023 21.254C191.391 20.4169 190.504 19.8086 189.497 19.521ZM7.00397 183.153L35.9512 168.653C36.7516 168.251 37.4246 167.634 37.8949 166.871C38.3653 166.108 38.6144 165.229 38.6144 164.332V61.7751L125.456 40.0245V202.197L5.57561 183.723C5.34917 183.685 5.11999 183.666 4.89037 183.665C5.62436 183.656 6.34678 183.481 7.00397 183.153Z" fill="url(#paint0_linear_2009_581)"/>
<defs>
<linearGradient id="paint0_linear_2009_581" x1="96.5" y1="0" x2="96.5" y2="232" gradientUnits="userSpaceOnUse">
<stop stop-color="#1C946D"/>
<stop offset="1" stop-color="#C7FFF2"/>
</linearGradient>
</defs>
</svg>
