<svg width="134" height="149" viewBox="0 0 134 149" fill="none" xmlns="http://www.w3.org/2000/svg">
<path opacity="0.25" d="M131.568 1.54688L84.6724 -11.8699C83.9423 -12.0797 83.1628 -12.0347 82.4616 -11.7426L2.06923 21.8001C1.46021 22.0552 0.940076 22.485 0.574169 23.0352C0.208263 23.5855 0.0129017 24.2317 0.0126291 24.8928V112.103C0.0126291 113.943 1.49204 115.439 3.32881 115.458C1.47885 115.469 -0.0115517 116.98 6.74785e-05 118.832C0.00438693 119.535 0.229098 120.219 0.642466 120.787C1.05583 121.355 1.63697 121.779 2.30381 121.998L82.6962 148.832C83.0382 148.943 83.3953 149 83.7548 149C84.0654 148.998 84.3744 148.953 84.6727 148.866L131.568 135.449C132.268 135.249 132.883 134.827 133.322 134.246C133.761 133.665 133.999 132.957 134 132.229V4.76696C133.999 4.0386 133.761 3.33047 133.322 2.74956C132.883 2.16864 132.267 1.74649 131.568 1.54688ZM4.86286 115.102L24.961 105.039C25.5167 104.76 25.9839 104.332 26.3105 103.803C26.637 103.273 26.81 102.663 26.81 102.041V30.8698L87.1043 15.7756V128.318L3.87115 115.498C3.71393 115.471 3.55481 115.458 3.39539 115.457C3.90499 115.451 4.40657 115.329 4.86286 115.102Z" fill="url(#paint0_linear_2009_829)"/>
<defs>
<linearGradient id="paint0_linear_2009_829" x1="67" y1="-12" x2="67" y2="149" gradientUnits="userSpaceOnUse">
<stop stop-color="#1C946D"/>
<stop offset="1" stop-color="#C7FFF2"/>
</linearGradient>
</defs>
</svg>
