<svg width="325" height="155" viewBox="0 0 325 155" fill="none" xmlns="http://www.w3.org/2000/svg">
<path opacity="0.25" d="M2.61012 154.964H28.0854C28.6356 154.969 29.1692 154.775 29.5871 154.415C30.0049 154.056 30.2785 153.557 30.3571 153.01L36.0363 123.384H55.8323C64.1188 123.587 72.3859 122.488 80.334 120.129C86.7705 117.987 92.6474 114.427 97.5339 109.711C101.915 105.751 105.591 101.072 108.406 95.8742C111.191 90.7889 113.162 85.2957 114.247 79.596C115.971 73.6232 116.267 67.3268 115.111 61.2177C113.955 55.1086 111.38 49.3589 107.594 44.4352C103.208 39.9639 97.8989 36.5102 92.0402 34.3167C86.1815 32.1233 79.9152 31.2432 73.6813 31.7383H25.0024C24.4185 31.7647 23.8605 31.9879 23.4188 32.372C22.9771 32.756 22.6775 33.2784 22.5684 33.8545L0.176172 152.034C-0.058724 152.719 -0.058724 153.464 0.176172 154.15C0.485798 154.473 0.869096 154.716 1.29308 154.858C1.71707 155 2.16904 155.036 2.61012 154.964ZM48.855 54.6905H65.0813C68.1684 54.2744 71.3071 54.4775 74.3154 55.2879C77.3236 56.0982 80.1416 57.4997 82.6057 59.4111C85.3642 62.3412 85.851 67.8758 84.3906 75.6893C83.5911 82.6838 80.3078 89.1557 75.1416 93.9208C68.7151 98.0028 61.1438 99.8874 53.5606 99.2926H40.5796L48.855 54.6905ZM207.873 39.2262C199.088 32.7474 188.211 29.7873 177.367 30.9244H158.058L163.413 2.27487C163.571 1.94474 163.653 1.58311 163.653 1.2168C163.653 0.850477 163.571 0.488853 163.413 0.158715C162.836 -0.0529051 162.204 -0.0529051 161.628 0.158715H136.152C135.602 0.153057 135.069 0.347966 134.651 0.707234C134.233 1.0665 133.959 1.5657 133.881 2.11209L111.488 120.454C111.332 120.756 111.25 121.091 111.25 121.431C111.25 121.771 111.332 122.106 111.488 122.408C111.68 122.708 111.944 122.955 112.256 123.126C112.568 123.297 112.918 123.385 113.273 123.384H138.262C138.837 123.386 139.392 123.168 139.813 122.775C140.235 122.382 140.492 121.844 140.534 121.268L153.028 55.016H171.039C178.341 55.016 180.937 56.6439 181.748 57.6205C182.418 59.2182 182.763 60.9337 182.763 62.6668C182.763 64.3998 182.418 66.1154 181.748 67.713L171.85 120.454C171.694 120.756 171.612 121.091 171.612 121.431C171.612 121.771 171.694 122.106 171.85 122.408C172.052 122.698 172.318 122.938 172.628 123.107C172.938 123.277 173.282 123.372 173.635 123.384H198.948C199.532 123.358 200.09 123.135 200.532 122.751C200.974 122.367 201.273 121.844 201.382 121.268L211.767 65.9224C213.443 61.509 213.964 56.7388 213.283 52.0659C212.601 47.3931 210.739 42.9729 207.873 39.2262ZM281.215 30.9244H230.427C230.129 30.9022 229.829 30.9395 229.545 31.034C229.261 31.1284 228.998 31.2783 228.772 31.475C228.546 31.6716 228.36 31.9111 228.227 32.1798C228.093 32.4485 228.014 32.741 227.993 33.0406L204.303 152.034C204.155 152.367 204.079 152.727 204.079 153.092C204.079 153.456 204.155 153.817 204.303 154.15C204.521 154.411 204.794 154.619 205.103 154.76C205.412 154.901 205.749 154.97 206.088 154.964H232.537C233.114 155.011 233.688 154.835 234.14 154.472C234.593 154.109 234.89 153.586 234.971 153.01L240.974 123.384H261.582C270.134 123.568 278.665 122.471 286.895 120.129C293.979 118.151 300.526 114.59 306.042 109.711C310.574 105.769 314.413 101.092 317.4 95.8742C320.218 90.7876 322.243 85.2978 323.404 79.596C325.172 73.6177 325.477 67.2995 324.29 61.1781C323.104 55.0567 320.462 49.3131 316.589 44.4352C312.007 39.7647 306.476 36.14 300.371 33.8085C294.267 31.4769 287.733 30.4932 281.215 30.9244ZM291.276 76.0148C290.305 83.0635 286.852 89.5307 281.54 94.2464C274.881 98.3469 267.099 100.227 259.31 99.6181H246.329L255.091 54.6905H271.317C277.804 53.893 284.351 55.5787 289.653 59.4111C292.249 62.3412 292.249 67.8758 291.276 76.0148Z" fill="url(#paint0_linear_2009_548)"/>
<defs>
<linearGradient id="paint0_linear_2009_548" x1="162.5" y1="0" x2="162.5" y2="203" gradientUnits="userSpaceOnUse">
<stop stop-color="#1C946D"/>
<stop offset="1" stop-color="#C7FFF2"/>
</linearGradient>
</defs>
</svg>
