<svg width="253" height="142" viewBox="0 0 253 142" fill="none" xmlns="http://www.w3.org/2000/svg">
<path opacity="0.25" d="M2.39328 141.967H25.7521C26.2567 141.972 26.746 141.793 27.1291 141.464C27.5122 141.135 27.763 140.678 27.8351 140.177L33.0425 113.036H51.1939C58.792 113.222 66.3723 112.215 73.6601 110.053C79.5618 108.091 84.9506 104.83 89.4311 100.509C93.4478 96.8817 96.8188 92.5951 99.3995 87.8331C101.954 83.1743 103.761 78.1419 104.756 72.9202C106.336 67.4483 106.608 61.68 105.548 56.0833C104.488 50.4866 102.127 45.2191 98.6556 40.7084C94.6337 36.6121 89.7658 33.4481 84.3938 31.4386C79.0218 29.4291 73.276 28.6228 67.56 29.0764H22.9253C22.3898 29.1005 21.8782 29.3051 21.4732 29.6569C21.0682 30.0087 20.7935 30.4873 20.6935 31.0151L0.161536 139.283C-0.0538454 139.911 -0.0538454 140.593 0.161536 141.221C0.445439 141.517 0.796894 141.74 1.18566 141.87C1.57442 142 1.98885 142.033 2.39328 141.967ZM44.7963 50.1035H59.6746C62.5052 49.7224 65.3831 49.9084 68.1415 50.6508C70.8998 51.3932 73.4837 52.6772 75.7431 54.4283C78.2724 57.1126 78.7187 62.183 77.3797 69.3411C76.6466 75.749 73.6361 81.6781 68.8991 86.0435C63.0065 89.7832 56.0642 91.5097 49.111 90.9648H37.2084L44.7963 50.1035ZM190.603 35.9363C182.549 30.0008 172.575 27.289 162.632 28.3307H144.927L149.837 2.08408C149.982 1.78163 150.057 1.45034 150.057 1.11474C150.057 0.779147 149.982 0.447852 149.837 0.145404C149.308 -0.0484679 148.729 -0.0484679 148.2 0.145404H124.841C124.337 0.14022 123.848 0.318782 123.464 0.647918C123.081 0.977053 122.83 1.43438 122.758 1.93495L102.226 110.352C102.083 110.628 102.008 110.935 102.008 111.246C102.008 111.558 102.083 111.865 102.226 112.141C102.402 112.416 102.644 112.643 102.93 112.799C103.216 112.956 103.537 113.037 103.863 113.036H126.775C127.303 113.037 127.812 112.838 128.198 112.478C128.585 112.118 128.821 111.625 128.858 111.097L140.315 50.4018H156.83C163.525 50.4018 165.905 51.8931 166.649 52.7878C167.263 54.2515 167.579 55.8232 167.579 57.4108C167.579 58.9985 167.263 60.5702 166.649 62.0338L157.573 110.352C157.43 110.628 157.355 110.935 157.355 111.246C157.355 111.558 157.43 111.865 157.573 112.141C157.758 112.407 158.002 112.627 158.286 112.782C158.57 112.938 158.887 113.024 159.21 113.036H182.42C182.956 113.012 183.467 112.807 183.872 112.455C184.277 112.104 184.552 111.625 184.652 111.097L194.174 60.3934C195.71 56.3502 196.189 51.9801 195.564 47.6991C194.939 43.4181 193.231 39.3687 190.603 35.9363ZM257.853 28.3307H211.284C211.01 28.3104 210.735 28.3446 210.475 28.4311C210.214 28.5177 209.973 28.655 209.766 28.8351C209.559 29.0153 209.389 29.2347 209.266 29.4809C209.144 29.727 209.071 29.995 209.052 30.2694L187.33 139.283C187.195 139.588 187.125 139.918 187.125 140.252C187.125 140.586 187.195 140.916 187.33 141.221C187.53 141.46 187.781 141.651 188.064 141.78C188.347 141.909 188.656 141.973 188.967 141.967H213.218C213.748 142.01 214.274 141.849 214.689 141.516C215.103 141.184 215.376 140.705 215.45 140.177L220.955 113.036H239.85C247.692 113.204 255.515 112.199 263.06 110.053C269.557 108.242 275.559 104.979 280.617 100.509C284.772 96.8982 288.293 92.6132 291.031 87.8331C293.615 83.1731 295.472 78.1438 296.536 72.9202C298.158 67.4433 298.437 61.655 297.349 56.047C296.261 50.439 293.839 45.1771 290.288 40.7084C286.087 36.4296 281.015 33.1089 275.417 30.9729C269.82 28.8369 263.829 27.9357 257.853 28.3307ZM267.077 69.6394C266.187 76.0968 263.021 82.0217 258.15 86.3418C252.045 90.0984 244.91 91.8212 237.767 91.2631H225.865L233.899 50.1035H248.777C254.725 49.3729 260.728 50.9172 265.59 54.4283C267.97 57.1126 267.97 62.183 267.077 69.6394Z" fill="url(#paint0_linear_2009_790)"/>
<defs>
<linearGradient id="paint0_linear_2009_790" x1="149" y1="0" x2="149" y2="185.974" gradientUnits="userSpaceOnUse">
<stop stop-color="#1C946D"/>
<stop offset="1" stop-color="#C7FFF2"/>
</linearGradient>
</defs>
</svg>
