<svg width="193" height="176" viewBox="0 0 193 176" fill="none" xmlns="http://www.w3.org/2000/svg">
<path opacity="0.25" d="M61.747 -18.7906L114.6 -32.9587C116.514 -33.4718 118.448 -32.3777 118.947 -30.5176L137.944 40.4124C138.171 41.3184 138.031 42.2775 137.555 43.0807C137.078 43.8839 136.304 44.4661 135.4 44.7005L90.1207 56.8384C76.7911 60.4115 68.7978 73.8418 72.2778 86.8352L76.5345 102.728C76.7498 103.632 76.6011 104.585 76.1205 105.38C75.6399 106.175 74.866 106.749 73.9658 106.979L40.3617 115.987C39.4605 116.24 38.4957 116.126 37.6785 115.669C36.8613 115.212 36.2584 114.45 36.0017 113.55L21.5173 59.4698C21.2901 58.5639 21.43 57.6048 21.9066 56.8016C22.3831 55.9984 23.1576 55.4161 24.0614 55.1817L107.648 32.7752C113.362 31.2433 116.788 25.4874 115.297 19.9208C114.921 18.5822 114.286 17.3308 113.426 16.2383C112.567 15.1458 111.5 14.2335 110.288 13.5537C109.075 12.8739 107.741 12.4398 106.361 12.2764C104.981 12.113 103.582 12.2234 102.245 12.6013L68.8455 21.5544L59.1893 -14.4988C58.9614 -15.4071 59.1027 -16.3688 59.582 -17.1732C60.0614 -17.9776 60.8399 -18.5592 61.747 -18.7906ZM148.239 -3.97937L139.645 -36.0661C136.165 -49.0595 122.544 -56.6957 109.201 -53.1189L56.3474 -38.9508C43.0042 -35.3739 35.0108 -21.9436 38.4909 -8.95028L48.1472 27.1029L18.6718 35.0042C5.31491 38.5847 -2.66475 52.0113 0.815305 65.0047L15.3033 119.098C18.7834 132.091 32.4044 139.728 45.7476 136.151L79.3791 127.135C80.5457 126.823 81.6733 126.437 82.762 125.979L91.3559 158.066C94.8359 171.059 108.457 178.696 121.8 175.119L174.653 160.951C187.997 157.374 195.99 143.944 192.51 130.95L182.854 94.8971L212.329 86.9958C225.672 83.419 233.666 69.9887 230.186 56.9953L215.694 2.88828C212.214 -10.1051 198.593 -17.7413 185.236 -14.1608L151.632 -5.15276C150.456 -4.83759 149.328 -4.43734 148.239 -3.97937ZM93.0568 81.5876C92.8296 80.6816 92.9695 79.7225 93.446 78.9193C93.9225 78.1161 94.6971 77.5339 95.6008 77.2995L140.88 65.1617C154.223 61.5848 162.203 48.1582 158.723 35.1648L154.466 19.2719C154.251 18.3679 154.4 17.4154 154.88 16.6201C155.361 15.8248 156.135 15.2505 157.035 15.0211L190.639 6.01306C192.553 5.49999 194.501 6.59036 194.999 8.45046L209.484 62.5302C209.711 63.4361 209.571 64.3952 209.094 65.1984C208.618 66.0016 207.843 66.5839 206.94 66.8183L123.353 89.2249C122.007 89.5663 120.741 90.1696 119.629 91.0005C118.516 91.8313 117.577 92.8732 116.867 94.0669C116.157 95.2606 115.688 96.5826 115.489 97.9573C115.289 99.3321 115.362 100.733 115.704 102.079C117.198 107.66 123.042 110.931 128.756 109.399L162.142 100.449L171.798 136.502C172.026 137.411 171.885 138.372 171.405 139.177C170.926 139.981 170.147 140.563 169.24 140.794L116.401 154.959C115.501 155.208 114.539 155.091 113.725 154.634C112.911 154.176 112.31 153.416 112.054 152.518L93.0568 81.5876Z" fill="url(#paint0_linear_2009_797)"/>
<defs>
<linearGradient id="paint0_linear_2009_797" x1="115.5" y1="-54" x2="115.5" y2="176" gradientUnits="userSpaceOnUse">
<stop stop-color="#1C946D"/>
<stop offset="1" stop-color="#C7FFF2"/>
</linearGradient>
</defs>
</svg>
