<svg width="293" height="233" viewBox="0 0 293 233" fill="none" xmlns="http://www.w3.org/2000/svg">
<path opacity="0.25" d="M78.3198 44.7007L145.359 26.7133C147.786 26.062 150.24 27.4509 150.872 29.8124L174.968 119.863C175.256 121.013 175.079 122.23 174.474 123.25C173.87 124.27 172.888 125.009 171.741 125.307L114.309 140.717C97.4017 145.253 87.263 162.304 91.6771 178.799L97.0762 198.977C97.3493 200.124 97.1607 201.333 96.5511 202.343C95.9415 203.353 94.9599 204.082 93.8181 204.373L51.1947 215.81C50.0516 216.131 48.8278 215.986 47.7913 215.406C46.7548 214.826 45.99 213.858 45.6645 212.715L27.2926 144.057C27.0044 142.907 27.1818 141.69 27.7862 140.67C28.3907 139.65 29.3731 138.911 30.5194 138.613L136.54 110.167C143.789 108.222 148.134 100.914 146.243 93.8473C145.766 92.1478 144.96 90.5592 143.869 89.1721C142.779 87.7851 141.426 86.6269 139.889 85.7638C138.351 84.9007 136.659 84.3497 134.908 84.1422C133.157 83.9347 131.383 84.0749 129.687 84.5546L87.3235 95.9212L75.0756 50.1494C74.7866 48.9962 74.9657 47.7753 75.5738 46.754C76.1818 45.7328 77.1692 44.9944 78.3198 44.7007ZM188.026 63.5044L177.125 22.7682C172.711 6.27232 155.434 -3.42241 138.51 1.11862L71.4709 19.106C54.5464 23.647 44.4077 40.6977 48.8218 57.1936L61.0698 102.965L23.6833 112.997C6.74142 117.542 -3.37997 134.588 1.03413 151.084L19.4107 219.759C23.8248 236.255 41.1017 245.95 58.0262 241.409L100.684 229.963C102.164 229.566 103.594 229.077 104.975 228.496L115.876 269.232C120.29 285.728 137.567 295.422 154.491 290.881L221.53 272.894C238.455 268.353 248.593 251.302 244.179 234.806L231.931 189.035L269.318 179.003C286.242 174.462 296.381 157.412 291.967 140.916L273.586 72.2234C269.172 55.7275 251.895 46.0327 234.953 50.5784L192.33 62.0148C190.838 62.4149 189.407 62.923 188.026 63.5044ZM118.033 172.137C117.745 170.987 117.922 169.769 118.527 168.75C119.131 167.73 120.114 166.991 121.26 166.693L178.692 151.283C195.617 146.742 205.738 129.696 201.324 113.201L195.925 93.0234C195.652 91.8757 195.84 90.6665 196.45 89.6569C197.06 88.6472 198.041 87.9181 199.183 87.6268L241.806 76.1905C244.234 75.5391 246.705 76.9234 247.337 79.2849L265.709 147.943C265.997 149.093 265.819 150.31 265.215 151.33C264.61 152.35 263.628 153.089 262.482 153.387L156.461 181.833C154.754 182.267 153.148 183.033 151.737 184.088C150.325 185.142 149.135 186.465 148.234 187.981C147.333 189.496 146.739 191.174 146.486 192.92C146.232 194.665 146.325 196.443 146.758 198.153C148.654 205.237 156.066 209.39 163.314 207.445L205.66 196.083L217.908 241.855C218.197 243.008 218.018 244.229 217.41 245.251C216.802 246.272 215.815 247.01 214.664 247.304L147.642 265.287C146.501 265.603 145.281 265.455 144.248 264.874C143.216 264.294 142.454 263.328 142.129 262.188L118.033 172.137Z" fill="url(#paint0_linear_2009_554)"/>
<defs>
<linearGradient id="paint0_linear_2009_554" x1="146.5" y1="0" x2="146.5" y2="292" gradientUnits="userSpaceOnUse">
<stop stop-color="#1C946D"/>
<stop offset="1" stop-color="#C7FFF2"/>
</linearGradient>
</defs>
</svg>
