<svg width="325" height="219" viewBox="0 0 325 219" fill="none" xmlns="http://www.w3.org/2000/svg">
<path opacity="0.25" d="M162.508 158.926C156.351 158.926 150.446 156.615 146.092 152.502C141.738 148.389 139.292 142.811 139.292 136.994C139.292 131.177 141.738 125.599 146.092 121.486C150.446 117.373 156.351 115.062 162.508 115.062C168.665 115.062 174.57 117.373 178.923 121.486C183.277 125.599 185.723 131.177 185.723 136.994C185.723 142.811 183.277 148.389 178.923 152.502C174.57 156.615 168.665 158.926 162.508 158.926ZM154.336 202.702C157.039 205.782 159.763 208.75 162.508 211.607C165.252 208.76 167.976 205.792 170.68 202.702C165.232 202.811 159.783 202.811 154.336 202.702ZM123.459 200.874C111.576 199.701 99.7696 197.91 88.0947 195.508C86.9287 200.626 86.0517 205.573 85.4636 210.349C82.523 233.495 86.6244 247.56 92.8616 250.953C99.0988 254.345 114.034 250.675 133.798 236.711C137.874 233.826 141.97 230.634 146.087 227.134C138.039 218.781 130.485 210.014 123.459 200.874ZM236.921 195.508C225.246 197.91 213.44 199.701 201.556 200.874C194.531 210.014 186.977 218.781 178.929 227.134C183.056 230.643 187.152 233.836 191.217 236.711C210.981 250.675 225.917 254.359 232.154 250.953C238.391 247.56 242.477 233.495 239.567 210.349C238.936 205.366 238.042 200.414 236.921 195.508ZM259.378 189.835C268.308 228.421 263.618 259.14 243.777 269.96C223.936 280.78 193.431 269.258 162.523 242.662C131.616 269.258 101.111 280.765 81.2693 269.946C61.4279 259.126 56.7384 228.421 65.6531 189.821C25.8 177.846 0 158.633 0 136.994C0 115.354 25.8 96.1565 65.6376 84.167C56.7229 45.5667 61.4124 14.8619 81.2539 4.04209C101.095 -6.7777 131.6 4.72929 162.508 31.3255C193.415 4.72929 223.92 -6.7777 243.762 4.04209C263.603 14.8619 268.293 45.5667 259.378 84.167C299.2 96.1565 325 115.354 325 136.994C325 158.633 299.2 177.846 259.378 189.835ZM146.071 46.8533C141.965 43.354 137.874 40.1616 133.798 37.2764C114.034 23.313 99.0988 19.6284 92.8461 23.0352C86.6089 26.4273 82.523 40.4931 85.4326 63.6533C86.0517 68.4296 86.9287 73.3764 88.0637 78.4939C99.7434 76.087 111.555 74.2908 123.444 73.1133C130.811 63.5509 138.353 54.7976 146.071 46.8533ZM201.556 73.1133C213.44 74.2913 225.246 76.0876 236.921 78.4939C238.087 73.3667 238.964 68.4198 239.552 63.6533C242.492 40.4931 238.391 26.4273 232.154 23.0352C225.917 19.643 210.981 23.313 191.217 37.2764C187.142 40.1616 183.046 43.354 178.929 46.8533C186.647 54.7976 194.189 63.5509 201.556 73.1133ZM170.68 71.2856C167.976 68.2054 165.252 65.2372 162.508 62.3812C159.773 65.2372 157.05 68.2054 154.336 71.2856C159.783 71.1769 165.232 71.1769 170.68 71.2856ZM106.357 176.53C103.534 172.13 100.81 167.674 98.1856 163.166C96.7102 166.919 95.3533 170.633 94.1152 174.307C98.0979 175.117 102.174 175.857 106.342 176.53M136.243 179.951C153.719 181.172 171.266 181.172 188.741 179.951C198.603 166.263 207.382 151.904 215.005 136.994C207.387 122.084 198.614 107.726 188.757 94.0364C171.281 92.8157 153.734 92.8157 136.259 94.0364C126.402 107.726 117.628 122.084 110.01 136.994C117.628 151.904 126.402 166.262 136.259 179.951M226.83 110.822C228.305 107.069 229.662 103.36 230.9 99.6948C226.843 98.8632 222.766 98.1173 218.673 97.4578C221.491 101.858 224.211 106.313 226.83 110.822ZM71.6582 105.368C66.396 106.976 61.4228 108.731 56.7384 110.632C34.0647 119.814 23.2154 130.195 23.2154 136.994C23.2154 143.793 34.0492 154.174 56.7384 163.356C61.4228 165.257 66.396 167.011 71.6582 168.62C75.094 158.385 79.3502 147.77 84.4266 136.994C79.5582 126.682 75.2956 116.124 71.6582 105.368ZM94.0997 99.6948C95.3482 103.35 96.7102 107.054 98.1856 110.807C100.81 106.303 103.534 101.853 106.357 97.4578C102.179 98.1303 98.0824 98.876 94.0997 99.6948ZM253.373 168.62C258.635 167.011 263.608 165.257 268.293 163.356C290.951 154.174 301.785 143.793 301.785 136.994C301.785 130.195 290.951 119.814 268.262 110.632C263.577 108.731 258.599 106.976 253.326 105.368C249.921 115.603 245.65 126.218 240.573 136.994C245.65 147.77 249.906 158.385 253.342 168.62M230.9 174.307C229.641 170.633 228.28 166.919 226.814 163.166C224.19 167.674 221.466 172.13 218.643 176.53C222.821 175.848 226.918 175.107 230.9 174.307Z" fill="url(#paint0_linear_2009_542)"/>
<defs>
<linearGradient id="paint0_linear_2009_542" x1="162.5" y1="0" x2="162.5" y2="274" gradientUnits="userSpaceOnUse">
<stop stop-color="#1C946D"/>
<stop offset="1" stop-color="#C7FFF2"/>
</linearGradient>
</defs>
</svg>
