<svg width="204" height="176" viewBox="0 0 204 176" fill="none" xmlns="http://www.w3.org/2000/svg">
<path opacity="0.25" d="M162.508 57.0121C156.351 57.0121 150.446 54.642 146.092 50.4232C141.738 46.2044 139.292 40.4825 139.292 34.5162C139.292 28.5499 141.738 22.828 146.092 18.6092C150.446 14.3904 156.351 12.0203 162.508 12.0203C168.665 12.0203 174.57 14.3904 178.923 18.6092C183.277 22.828 185.723 28.5499 185.723 34.5162C185.723 40.4825 183.277 46.2044 178.923 50.4232C174.57 54.642 168.665 57.0121 162.508 57.0121ZM154.336 101.914C157.039 105.073 159.763 108.118 162.508 111.047C165.252 108.128 167.976 105.083 170.68 101.914C165.232 102.025 159.783 102.025 154.336 101.914ZM123.459 100.039C111.576 98.8359 99.7696 96.9985 88.0947 94.5353C86.9287 99.7844 86.0517 104.858 85.4636 109.758C82.523 133.498 86.6244 147.926 92.8616 151.405C99.0988 154.884 114.034 151.12 133.798 136.798C137.874 133.838 141.97 130.564 146.087 126.974C138.039 118.406 130.485 109.414 123.459 100.039ZM236.921 94.5353C225.246 96.9985 213.44 98.8359 201.556 100.039C194.531 109.414 186.977 118.406 178.929 126.974C183.056 130.574 187.152 133.848 191.217 136.798C210.981 151.12 225.917 154.899 232.154 151.405C238.391 147.926 242.477 133.498 239.567 109.758C238.936 104.646 238.042 99.5668 236.921 94.5353ZM259.378 88.7164C268.308 128.294 263.618 159.803 243.777 170.901C223.936 181.999 193.431 170.182 162.523 142.902C131.616 170.182 101.111 181.984 81.2693 170.886C61.4279 159.788 56.7384 128.294 65.6531 88.7014C25.8 76.4186 0 56.7122 0 34.5162C0 12.3203 25.8 -7.37115 65.6376 -19.6689C56.7229 -59.2617 61.4124 -90.756 81.2539 -101.854C101.095 -112.952 131.6 -101.149 162.508 -73.8691C193.415 -101.149 223.92 -112.952 243.762 -101.854C263.603 -90.756 268.293 -59.2617 259.378 -19.6689C299.2 -7.37115 325 12.3203 325 34.5162C325 56.7122 299.2 76.4186 259.378 88.7164ZM146.071 -57.942C141.965 -61.5313 137.874 -64.8057 133.798 -67.7652C114.034 -82.0876 99.0988 -85.8669 92.8461 -82.3725C86.6089 -78.8932 82.523 -64.4658 85.4326 -40.7101C86.0517 -35.811 86.9287 -30.7369 88.0637 -25.4879C99.7434 -27.9566 111.555 -29.7991 123.444 -31.0069C130.811 -40.8151 138.353 -49.7934 146.071 -57.942ZM201.556 -31.0069C213.44 -29.7985 225.246 -27.9561 236.921 -25.4879C238.087 -30.7469 238.964 -35.821 239.552 -40.7101C242.492 -64.4658 238.391 -78.8932 232.154 -82.3725C225.917 -85.8519 210.981 -82.0876 191.217 -67.7652C187.142 -64.8057 183.046 -61.5313 178.929 -57.942C186.647 -49.7934 194.189 -40.8151 201.556 -31.0069ZM170.68 -32.8815C167.976 -36.0409 165.252 -39.0854 162.508 -42.0149C159.773 -39.0854 157.05 -36.0409 154.336 -32.8815C159.783 -32.993 165.232 -32.993 170.68 -32.8815ZM106.357 75.0689C103.534 70.5559 100.81 65.9857 98.1856 61.3613C96.7102 65.2106 95.3533 69.02 94.1152 72.7893C98.0979 73.6191 102.174 74.379 106.342 75.0689M136.243 78.5782C153.719 79.8303 171.266 79.8303 188.741 78.5782C198.603 64.5375 207.382 49.8101 215.005 34.5162C207.387 19.2228 198.614 4.49543 188.757 -9.54576C171.281 -10.7979 153.734 -10.7979 136.259 -9.54576C126.402 4.49543 117.628 19.2228 110.01 34.5162C117.628 49.8096 126.402 64.537 136.259 78.5782M226.83 7.6711C228.305 3.82181 229.662 0.0175018 230.9 -3.74181C226.843 -4.59486 222.766 -5.35993 218.673 -6.03641C221.491 -1.52335 224.211 3.04685 226.83 7.6711ZM71.6582 2.07713C66.396 3.72682 61.4228 5.52649 56.7384 7.47614C34.0647 16.8944 23.2154 27.5425 23.2154 34.5162C23.2154 41.49 34.0492 52.138 56.7384 61.5563C61.4228 63.506 66.396 65.3056 71.6582 66.9553C75.094 56.4572 79.3502 45.5692 84.4266 34.5162C79.5582 23.9389 75.2956 13.1094 71.6582 2.07713ZM94.0997 -3.74181C95.3482 0.00750732 96.7102 3.8068 98.1856 7.65611C100.81 3.03676 103.534 -1.52843 106.357 -6.03641C102.179 -5.34653 98.0824 -4.58166 94.0997 -3.74181ZM253.373 66.9553C258.635 65.3056 263.608 63.506 268.293 61.5563C290.951 52.138 301.785 41.49 301.785 34.5162C301.785 27.5425 290.951 16.8944 268.262 7.47614C263.577 5.52649 258.599 3.72682 253.326 2.07713C249.921 12.5752 245.65 23.4632 240.573 34.5162C245.65 45.5692 249.906 56.4572 253.342 66.9553M230.9 72.7893C229.641 69.02 228.28 65.2106 226.814 61.3613C224.19 65.9857 221.466 70.5559 218.643 75.0689C222.821 74.369 226.918 73.6091 230.9 72.7893Z" fill="url(#paint0_linear_2009_778)"/>
<defs>
<linearGradient id="paint0_linear_2009_778" x1="162.5" y1="-106" x2="162.5" y2="175.045" gradientUnits="userSpaceOnUse">
<stop stop-color="#1C946D"/>
<stop offset="1" stop-color="#C7FFF2"/>
</linearGradient>
</defs>
</svg>
